<?xml version="1.0" encoding="utf-8" ?><svg xmlns="http://www.w3.org/2000/svg" xmlns:xlink="http://www.w3.org/1999/xlink" width="1024" height="1024" viewBox="0 0 1024 1024"><path fill="#022E66" transform="scale(2.048 2.048)" d="M265.181 108.617L267.658 108.608C275.413 108.583 282.15 108.497 289.851 110.127C306.354 113.717 321.427 124.911 333.242 136.54C358.829 161.726 358.78 200.134 370.005 232.082C373.357 241.621 378.522 248.541 383.683 257.018C394.418 274.664 400.186 293.538 400.076 314.146C400.511 328.997 396.35 345.508 388.206 358.265C375.287 378.505 347.178 390.248 323.676 390.468C315.121 390.549 306.705 389.661 298.312 389.888C287.975 390.168 277.942 390.354 267.626 390.285C256.646 390.628 245.975 390.96 234.966 390.939C229.018 390.787 221.779 390.811 215.977 390.057C189.824 386.655 163.447 375.426 143.759 357.85C121.328 337.826 108.774 314.235 103.401 284.842C101.64 275.206 100.253 268.136 99.7358 258.161C98.6561 243.855 100.479 230.546 103.256 216.617C106.498 200.349 112.887 188.203 123.907 175.796C136.393 161.739 153.806 153.554 171.525 148.097C177.265 146.329 183.485 145.527 188.981 142.955C210.524 132.23 229.244 114.626 253.392 109.765C257.199 108.999 261.296 108.845 265.181 108.617Z"/><path fill="#FEFEFE" transform="scale(2.048 2.048)" d="M247.267 132.632C248.036 133.391 254.629 152.542 255.43 154.84L289.458 254.053C292.275 262.329 294.994 270.471 298.111 278.639C302.176 289.293 305.355 300.377 309.532 310.988C312.28 317.968 317.43 324.35 325.545 324.431L325.511 328.276L275.875 328.266C264.625 328.236 253.715 328.477 242.433 328.239C242.439 327.133 242.372 325.858 242.341 324.738C246.258 323.813 249.356 322.253 251.812 318.922C256.974 311.919 252.455 303.124 249.906 295.793L243.137 276.221L232.757 246.154C230.863 240.666 228.987 235.062 226.95 229.632C226.309 228.277 225.283 225.596 223.997 224.834C220.753 222.912 218.202 225.068 216.583 227.902L213.132 226.685C214.318 222.42 216.653 216.688 218.23 212.35L227.735 186.098L240.364 150.945C242.463 145.197 244.895 138.108 247.267 132.632Z"/><path fill="#FEFEFE" transform="scale(2.048 2.048)" d="M188.806 293.435C189.826 293.536 191.422 293.902 192.474 294.108C192.934 302.3 194.354 309.623 200.131 315.929C204.71 320.927 213.834 324.16 220.443 324.357C220.399 325.642 220.409 326.978 220.4 328.267L185.547 328.27L153.998 328.234L153.99 324.384C170.638 320.964 182.259 308.672 188.806 293.435Z"/><path fill="#FEFEFE" transform="scale(2.048 2.048)" d="M327.382 281.336C328.659 284.109 330.249 287.166 331.6 289.942C327.715 291.662 311.475 296.159 311.151 298.939C312.141 299.498 316.282 297.791 317.542 297.331C324.444 294.814 331.537 292.638 338.247 289.638C338.767 289.405 339.54 288.107 339.878 287.574C341.384 290.358 342.88 293.14 344.432 295.899C341.319 297.108 338.196 298.301 335.111 299.582C334.991 300.074 334.824 300.88 334.676 301.334C335.264 303.21 337.044 305.355 338.112 308.83C331.507 312.172 324.447 313.773 317.819 316.63C317.268 317.369 316.78 318.242 316.3 319.038L311.18 304.466C309.314 298.98 309.119 296.154 306.004 291.085C312.448 288.147 319.385 286.564 325.48 283.345C325.96 283.092 326.988 281.822 327.382 281.336Z"/><path fill="#022E66" transform="scale(2.048 2.048)" d="M334.676 301.334L334.289 300.911C333.353 301.014 332.138 302.554 331.298 302.876C328.753 303.852 315.438 309.994 313.75 308.3L313.899 307.828C316.669 305.408 330.758 301.026 335.111 299.582C334.991 300.074 334.824 300.88 334.676 301.334Z"/><path fill="#FEFEFE" transform="scale(2.048 2.048)" d="M315.175 248.413C317.315 250.105 318.456 255.774 319.804 258.14C321.227 260.637 323.756 263.893 322.014 266.888C318.605 272.75 308.953 274.042 303.158 276.288L302.866 276.404C302.561 277.214 302.375 277.626 301.981 278.397L301.66 278.404C300.398 274.861 299.22 271.357 297.911 267.775L300.456 268.713C303.655 267.369 308.102 265.926 311.46 264.744L315.639 263.359C322.547 266.687 320.541 258.58 318.453 258.197C316.064 257.758 301.206 263.512 298.839 264.689L297.435 266.98C296.359 263.31 294.887 260.036 294.068 256.276C295.043 256.558 296.089 256.829 297.076 256.494C301.816 254.888 312.381 252.645 315.175 248.413Z"/><path fill="#FEFEFE" transform="scale(2.048 2.048)" d="M208.647 244.423C209.186 246.755 207.521 252.19 208.73 255.795C210.647 261.507 215.261 263.8 220.076 266.611C206.739 264.852 204.97 265.624 197.864 277.049C197.064 275.932 199.221 269.785 197.828 266.091C195.604 260.196 191.404 257.937 186.187 255.157C198.953 256.976 202.336 255.781 208.647 244.423Z"/><path fill="#FEFEFE" transform="scale(2.048 2.048)" d="M322.943 269.74C324.108 270.9 326.61 276.48 327.428 278.214C322.894 280.357 315.94 282.581 311.025 283.848C309.387 284.271 307.397 282.782 305.998 283.488C305.512 284.357 305.657 285.172 305.68 286.202C305.935 286.944 306.121 287.301 306.072 288.09L305.64 288.098C304.032 285.97 303.651 283.804 303.478 281.247C307.908 273.308 317.469 276.544 322.943 269.74Z"/><path fill="#FEFEFE" transform="scale(2.048 2.048)" d="M256.2 335.681C264.832 336.174 262.712 344.703 257.135 346.889C249.093 347.89 250.425 339.464 256.2 335.681Z"/><path fill="#022E66" transform="scale(2.048 2.048)" d="M256.199 337.197C262.75 336.802 260.712 342.512 257.371 345.551C251.767 346.568 252.456 340.283 256.199 337.197Z"/><path fill="#FEFEFE" transform="scale(2.048 2.048)" d="M291.784 335.744C299.631 335.396 298.273 343.821 292.57 346.864C287.817 347.415 285.866 344.819 287.361 340.123C288.113 337.758 289.644 336.753 291.784 335.744Z"/><path fill="#022E66" transform="scale(2.048 2.048)" d="M291.548 337.212C293.752 337.002 296 337.82 295.682 340.511C295.396 342.927 294.196 344.124 292.429 345.581C287.884 346.872 286.909 340.529 291.548 337.212Z"/><path fill="#FEFEFE" transform="scale(2.048 2.048)" d="M268.228 335.73C274.012 335.55 279.072 338.34 271.821 342.555C272.533 343.969 273.385 345.374 273.143 346.988L272.267 346.92L271.79 345.918C271.023 343.921 270.588 343.411 269.178 341.924C268.672 343.435 268.136 345.6 266.943 346.6L266.614 346.382C266.258 344.198 267.533 337.909 268.228 335.73Z"/><path fill="#022E66" transform="scale(2.048 2.048)" d="M269.293 337.034C270.96 337.216 273.588 337.075 273.82 339.065C273.485 339.965 273.379 340.047 272.764 340.814C271.239 341.432 270.111 341.89 268.878 340.611C268.471 339.461 268.883 338.176 269.293 337.034Z"/><path fill="#FEFEFE" transform="scale(2.048 2.048)" d="M341.428 299.221C344.92 299.723 345.278 300.151 346.973 303.135C346.07 305.48 345.628 306.09 343.613 307.549C340.991 307.835 338.531 306.208 338.738 303.43C338.903 301.227 339.887 300.517 341.428 299.221Z"/><path fill="#FEFEFE" transform="scale(2.048 2.048)" d="M190.005 335.592L190.61 335.94C191.557 337.618 193.277 345.044 192.829 346.779L192.347 346.989L191.875 346.755C191.394 345.887 191.463 345.055 191.413 344.04C189.595 343.857 188.939 343.841 187.117 343.957C185.885 345.057 185.613 346.086 184.14 347.029L183.981 346.775C184.983 343.608 188.168 338.451 190.005 335.592Z"/><path fill="#FEFEFE" transform="scale(2.048 2.048)" d="M242.315 335.712C244.375 335.726 247.152 335.759 247.174 338.492C246.039 338.701 242.38 335.506 241.258 338.75C240.62 340.594 248.418 341.75 246.952 344.718C246.475 345.685 243.889 346.747 242.812 347.068C240.481 347.076 238.991 346.53 238.36 344.066L238.586 343.778C240.73 344.025 243.825 347.85 244.913 344.071C243.979 340.82 235.194 340.929 242.315 335.712Z"/><path fill="#FEFEFE" transform="scale(2.048 2.048)" d="M305.331 335.716C307.151 335.755 308.928 335.809 310.173 337.291C310.411 338.264 310.423 337.794 310.13 338.756C308.639 338.674 307.325 336.671 305.242 337.212C304.589 337.721 304.595 337.662 304.319 338.432C305 341.846 315.454 342.709 306.147 347.016C304.205 347.11 301.045 346.262 301.646 343.79L302.235 343.631C303.179 343.871 306.18 348.144 307.877 344.285C307.218 341.133 298.397 340.642 305.331 335.716Z"/><path fill="#FEFEFE" transform="scale(2.048 2.048)" d="M229.364 335.718C231.283 335.806 234.486 335.86 234.399 338.64C233.108 338.664 231.753 337.087 229.466 337.183C225.065 339.47 232.977 340.889 233.648 343.267C234.3 345.574 231.19 346.693 229.703 347.02C227.429 347.016 225.442 345.987 225.102 343.537C227.013 343.727 228.454 345.939 230.662 345.598C231.415 345.126 231.69 345.042 232.091 344.243C231.394 341.214 222.137 340.726 229.364 335.718Z"/><path fill="#FEFEFE" transform="scale(2.048 2.048)" d="M215.074 335.739C218.373 335.657 219.635 335.751 222.856 336.479C220.169 337.298 218.981 337.256 216.159 337.214L215.561 340.696C217.238 340.714 218.653 340.653 220.258 341.148L220.386 341.415C218.227 342.372 216.489 341.669 215.414 342.432C215.278 343.239 215.131 344.301 215.103 345.036C215.045 346.541 218.315 344.868 219.776 346.268L219.761 346.585C218.414 347.169 214.728 347.005 213.065 346.993C213.83 343.876 214.484 339.049 215.074 335.739Z"/><path fill="#FEFEFE" transform="scale(2.048 2.048)" d="M203.538 335.728C204.937 335.664 207.161 335.523 207.937 336.893C208.401 337.713 209.095 338.537 208.953 339.528C207.864 340.049 206.028 336.774 204.564 336.903C200.464 337.264 197.709 345.972 204.464 345.626C206.047 344.498 207.228 343.703 208.897 342.718C202.214 353.57 193.391 341.381 203.538 335.728Z"/><path fill="#FEFEFE" transform="scale(2.048 2.048)" d="M281.563 335.356C281.942 335.581 281.854 335.551 282.156 335.901C282.551 338.141 281.324 345.074 280.324 347.19L279.678 346.861C278.965 344.709 280.663 337.56 281.563 335.356Z"/><path fill="#FEFEFE" transform="scale(2.048 2.048)" d="M259.757 331.584C259.906 331.634 260.251 331.841 260.405 331.926C260.39 333.268 259.357 334.197 258.463 335.222L257.82 334.891L257.709 334.399C258.064 333.306 258.969 332.472 259.757 331.584Z"/></svg>